HIERARCHY
ROOT Hips
{
	OFFSET 59.135201 -7.696614 85.619202
	CHANNELS 6 Xposition Yposition Zposition Xrotation Yrotation Zrotation
	JOINT spine
	{
		OFFSET 0.000000 -0.367608 6.392601
		CHANNELS 3 Xrotation Yrotation Zrotation
		JOINT spine1
		{
			OFFSET 0.000000 -0.000001 9.176109
			CHANNELS 3 Xrotation Yrotation Zrotation
			JOINT spine2
			{
				OFFSET 0.000000 -0.000002 8.792381
				CHANNELS 3 Xrotation Yrotation Zrotation
				JOINT Neck
				{
					OFFSET 0.000000 -1.076243 22.573692
					CHANNELS 3 Xrotation Yrotation Zrotation
					JOINT Head
					{
						OFFSET 0.000000 -0.000001 6.820114
						CHANNELS 3 Xrotation Yrotation Zrotation
						End Site
						{
							OFFSET 0.000000 5.444267 16.508499
						}
					}
				}
				JOINT RightShoulder
				{
					OFFSET -3.702209 0.515507 9.495087
					CHANNELS 3 Xrotation Yrotation Zrotation
					JOINT RightArm
					{
						OFFSET 0.000000 -0.000002 12.453697
						CHANNELS 3 Xrotation Yrotation Zrotation
						JOINT RightArmRoll
						{
							OFFSET 0.000000 -0.000001 6.286850
							CHANNELS 3 Xrotation Yrotation Zrotation
							JOINT RightForeArm
							{
								OFFSET 0.000000 -0.000003 18.311401
								CHANNELS 3 Xrotation Yrotation Zrotation
								JOINT RightForeArmRoll
								{
									OFFSET 0.000000 -0.000001 7.054825
									CHANNELS 3 Xrotation Yrotation Zrotation
									JOINT RightHand
									{
										OFFSET 0.000000 -0.000002 14.157501
										CHANNELS 3 Xrotation Yrotation Zrotation
										End Site
										{
											OFFSET 0.000000 0.000000 0.100006
										}
									}
								}
							}
						}
					}
				}
				JOINT LeftShoulder
				{
					OFFSET 3.702209 0.515507 9.495087
					CHANNELS 3 Xrotation Yrotation Zrotation
					JOINT LeftArm
					{
						OFFSET 0.000000 -0.000002 12.453697
						CHANNELS 3 Xrotation Yrotation Zrotation
						JOINT LeftArmRoll
						{
							OFFSET 0.000000 -0.000001 6.286850
							CHANNELS 3 Xrotation Yrotation Zrotation
							JOINT LeftForeArm
							{
								OFFSET 0.000000 -0.000003 18.311401
								CHANNELS 3 Xrotation Yrotation Zrotation
								JOINT LeftForeArmRoll
								{
									OFFSET 0.000000 -0.000001 7.054825
									CHANNELS 3 Xrotation Yrotation Zrotation
									JOINT LeftHand
									{
										OFFSET 0.000000 -0.000002 14.157501
										CHANNELS 3 Xrotation Yrotation Zrotation
										End Site
										{
											OFFSET 0.000000 0.000000 0.100006
										}
									}
								}
							}
						}
					}
				}
			}
		}
	}
	JOINT RightUpLeg
	{
		OFFSET -5.666161 0.871610 -1.039032
		CHANNELS 3 Xrotation Yrotation Zrotation
		JOINT RightUpLegRoll
		{
			OFFSET 0.000000 -0.000003 16.600502
			CHANNELS 3 Xrotation Yrotation Zrotation
			JOINT RightLeg
			{
				OFFSET 0.000000 0.000003 -20.557198
				CHANNELS 3 Xrotation Yrotation Zrotation
				JOINT RightLegRoll
				{
					OFFSET 0.000000 -0.000003 20.624397
					CHANNELS 3 Xrotation Yrotation Zrotation
					JOINT RightFoot
					{
						OFFSET 0.000000 -0.000002 17.166405
						CHANNELS 3 Xrotation Yrotation Zrotation
						JOINT RightToeBase
						{
							OFFSET 0.000000 -0.000002 14.350204
							CHANNELS 3 Xrotation Yrotation Zrotation
							End Site
							{
								OFFSET 0.006081 0.801060 6.949707
							}
						}
					}
				}
			}
		}
	}
	JOINT LeftUpLeg
	{
		OFFSET 5.666161 0.871610 -1.039032
		CHANNELS 3 Xrotation Yrotation Zrotation
		JOINT LeftUpLegRoll
		{
			OFFSET 0.000000 -0.000003 16.600601
			CHANNELS 3 Xrotation Yrotation Zrotation
			JOINT LeftLeg
			{
				OFFSET 0.000000 -0.000003 20.557098
				CHANNELS 3 Xrotation Yrotation Zrotation
				JOINT LeftLegRoll
				{
					OFFSET 0.000000 -0.000003 20.815094
					CHANNELS 3 Xrotation Yrotation Zrotation
					JOINT LeftFoot
					{
						OFFSET 0.000000 -0.000003 16.975693
						CHANNELS 3 Xrotation Yrotation Zrotation
						JOINT LeftToeBase
						{
							OFFSET 0.000000 -0.000002 14.350204
							CHANNELS 3 Xrotation Yrotation Zrotation
							End Site
							{
								OFFSET -0.027260 0.801060 6.949707
							}
						}
					}
				}
			}
		}
	}
}
MOTION
Frames: 9
Frame Time: 0.041667
53.110092 -9.720625 121.474998 8.040804 -2.070560 0.882427 -2.182959 0.235611 0.106137 -0.363566 0.468240 0.218759 1.281523 0.470821 0.213132 14.513684 2.341921 -0.561092 -4.429256 -3.394227 -0.595342 -17.869978 -43.336464 -21.024921 -76.100977 -104.716786 -52.742492 0.000000 -0.000002 -0.000004 56.775258 -2.132867 -0.298884 0.000001 0.000000 -3.000001 -5.000198 -7.998782 0.000167 -20.729863 47.986788 24.723200 -64.876060 107.491536 62.211740 -0.000005 -0.000007 0.000003 58.321599 5.388101 -0.567471 0.000001 -0.000005 3.000010 -5.000227 7.998763 -0.000149 -10.348204 -174.004397 0.252851 -179.999991 0.000006 -0.847007 172.361354 -3.561200 -0.733297 0.000003 0.000000 0.056242 66.957396 6.793042 2.513949 25.456863 -7.355624 -0.000002 -9.878012 179.521195 4.278644 -0.000005 -0.000004 -0.881547 -11.288448 0.446925 0.556154 -0.000004 0.000001 -0.086848 68.375057 -6.848435 -2.303259 25.456953 7.355614 0.000001 
53.113396 -9.726858 121.555000 8.146388 -2.111862 0.942016 -2.227021 0.241264 0.107606 -0.451700 0.479410 0.222067 1.193391 0.482028 0.216305 15.072682 2.313893 -0.609858 -4.794846 -3.348527 -0.642236 -18.068767 -43.481507 -21.286069 -76.653786 -104.429597 -53.261576 -0.000001 -0.000000 -0.000003 56.039725 -2.176340 -0.292844 0.000001 0.000001 -3.000002 -5.000198 -7.998782 0.000165 -20.657702 48.358347 24.621391 -64.888013 106.987837 62.199370 -0.000005 -0.000005 0.000003 57.628287 5.581251 -0.637957 0.000003 -0.000006 3.000009 -5.000228 7.998763 -0.000151 -10.416287 -173.952569 0.255241 -179.999991 0.000005 -0.844999 172.411774 -3.567563 -0.728948 0.000003 0.000000 0.055154 66.969725 6.791913 2.516656 25.456860 -7.355623 -0.000002 -9.933350 179.565605 4.326534 -0.000005 -0.000004 -0.876968 -11.150035 0.441832 0.549738 -0.000004 0.000001 -0.083603 68.360734 -6.847647 -2.306595 25.456962 7.355613 0.000000 
53.147297 -9.712274 121.655998 8.244992 -2.147909 0.999555 -2.268592 0.246532 0.108737 -0.534864 0.489817 0.224690 1.110231 0.492466 0.218803 15.612177 2.280381 -0.655131 -5.150278 -3.300968 -0.685305 -18.261368 -43.617837 -21.539131 -77.177770 -104.151048 -53.747493 -0.000002 0.000000 -0.000004 55.305370 -2.218154 -0.287568 0.000003 0.000003 -2.999999 -5.000199 -7.998782 0.000167 -20.587192 48.704928 24.521943 -64.851096 106.502204 62.127565 -0.000005 -0.000005 0.000004 56.953949 5.761166 -0.700611 -0.000000 -0.000006 3.000011 -5.000226 7.998763 -0.000153 -10.479009 -173.908514 0.255583 -179.999991 0.000005 -0.841993 172.459340 -3.571923 -0.725515 0.000004 0.000000 0.054145 66.982381 6.790819 2.519151 25.456856 -7.355622 -0.000003 -9.985543 179.603103 4.369320 -0.000005 -0.000004 -0.872712 -11.019726 0.437206 0.543778 -0.000003 0.000001 -0.080533 68.347347 -6.846894 -2.309780 25.456960 7.355613 0.000001 
53.138901 -9.707806 121.731979 8.335279 -2.177416 1.054370 -2.307155 0.251331 0.109466 -0.612008 0.499300 0.226492 1.033080 0.501969 0.220492 16.126854 2.239657 -0.695882 -5.491833 -3.250902 -0.723618 -18.446960 -43.744220 -21.782868 -77.657598 -103.882143 -54.184413 -0.000001 -0.000001 -0.000005 54.572778 -2.257859 -0.282967 0.000002 0.000002 -2.999999 -5.000197 -7.998781 0.000168 -20.520101 49.021108 24.427415 -64.751320 106.038366 61.981795 -0.000005 -0.000006 0.000003 56.302578 5.925015 -0.754942 0.000001 -0.000002 3.000010 -5.000227 7.998760 -0.000150 -10.534532 -173.873216 0.253117 -179.999991 0.000004 -0.839999 172.504665 -3.575262 -0.721085 0.000003 0.000000 0.053213 66.995078 6.789837 2.521366 25.456861 -7.355623 -0.000003 -10.033494 179.631708 4.406090 -0.000005 -0.000004 -0.868842 -10.898614 0.433016 0.538342 -0.000004 0.000001 -0.077672 68.335455 -6.846173 -2.312578 25.456955 7.355613 0.000000 
53.140499 -9.741422 121.823997 8.415932 -2.199126 1.105787 -2.342195 0.255578 0.109727 -0.682083 0.507704 0.227332 0.963009 0.510382 0.221230 16.610982 2.190015 -0.731029 -5.815779 -3.197681 -0.756238 -18.624003 -43.859551 -22.015517 -78.076972 -103.624201 -54.555576 -0.000002 0.000001 -0.000005 53.842644 -2.294969 -0.279044 0.000002 -0.000003 -2.999999 -5.000201 -7.998782 0.000166 -20.458133 49.301231 24.340407 -64.572404 105.600168 61.745190 -0.000005 -0.000006 0.000004 55.677732 6.070034 -0.800643 0.000001 -0.000005 3.000008 -5.000230 7.998764 -0.000151 -10.580978 -173.849556 0.247446 -179.999991 0.000005 -0.839002 172.548460 -3.577611 -0.717604 0.000003 0.000000 0.052357 67.007393 6.789000 2.523134 25.456860 -7.355624 -0.000002 -10.076173 179.650477 4.435760 -0.000005 -0.000004 -0.865425 -10.787606 0.429230 0.533501 -0.000004 0.000001 -0.075052 68.325470 -6.845484 -2.315165 25.456957 7.355613 0.000001 
53.129791 -9.727814 121.880997 8.485617 -2.211755 1.153124 -2.373167 0.259195 0.109455 -0.744042 0.514867 0.227071 0.901051 0.517542 0.220883 17.059246 2.129797 -0.759491 -6.118373 -3.140674 -0.782233 -18.791526 -43.962728 -22.235725 -78.418549 -103.378069 -54.843294 -0.000001 -0.000001 -0.000004 53.115530 -2.329012 -0.275711 0.000004 0.000002 -3.000003 -5.000199 -7.998784 0.000162 -20.403271 49.539854 24.263713 -64.298691 105.191586 61.401625 -0.000005 -0.000007 0.000003 55.083331 6.193295 -0.837458 0.000003 -0.000005 3.000011 -5.000230 7.998758 -0.000147 -10.616715 -173.838464 0.237798 -179.999991 0.000005 -0.836994 172.591353 -3.576970 -0.713802 0.000004 0.000000 0.051574 67.018895 6.788300 2.524680 25.456863 -7.355622 -0.000003 -10.112565 179.657403 4.457414 -0.000005 -0.000004 -0.862523 -10.687597 0.425820 0.529324 -0.000003 0.000001 -0.072707 68.317820 -6.844863 -2.317421 25.456953 7.355613 0.000001 
53.158596 -9.718058 121.966995 8.544575 -2.215993 1.197675 -2.400736 0.262289 0.108589 -0.799186 0.521016 0.225591 0.845911 0.523672 0.219330 17.485235 2.057718 -0.782174 -6.409588 -3.077679 -0.802363 -18.951203 -44.057217 -22.445303 -78.698027 -103.141157 -55.064336 -0.000001 -0.000000 -0.000005 52.390905 -2.361244 -0.272120 0.000001 -0.000001 -2.999998 -5.000198 -7.998782 0.000165 -20.348937 49.743817 24.189265 -63.927449 104.807094 60.944350 -0.000005 -0.000005 0.000003 54.511969 6.293420 -0.868202 0.000001 -0.000006 3.000009 -5.000230 7.998759 -0.000148 -10.643262 -173.838983 0.224749 -179.999991 0.000005 -0.834999 172.630668 -3.576285 -0.710222 0.000004 0.000000 0.050909 67.031183 6.787757 2.525711 25.456858 -7.355621 -0.000003 -10.142769 179.653510 4.471126 -0.000005 -0.000005 -0.860110 -10.597691 0.423173 0.525735 -0.000002 0.000001 -0.070587 68.311645 -6.844245 -2.319285 25.456959 7.355614 0.000001 
53.129997 -9.721841 122.028992 8.594534 -2.213853 1.241128 -2.425978 0.265039 0.107163 -0.849675 0.526500 0.222964 0.795422 0.529124 0.216638 17.905595 1.974949 -0.800758 -6.700980 -3.007880 -0.818182 -19.105453 -44.146798 -22.647063 -78.942937 -102.909968 -55.247836 -0.000002 -0.000001 -0.000005 51.667260 -2.393158 -0.267645 0.000001 -0.000001 -2.999998 -5.000196 -7.998781 0.000163 -20.288317 49.924438 24.108302 -63.466760 104.438333 60.379706 -0.000005 -0.000006 0.000003 53.953932 6.372428 -0.896455 0.000003 -0.000006 3.000011 -5.000230 7.998762 -0.000152 -10.663977 -173.849242 0.209595 -179.999991 0.000005 -0.834002 172.663712 -3.573583 -0.706782 0.000004 0.000000 0.050395 67.045676 6.787235 2.526510 25.456854 -7.355623 -0.000003 -10.168185 179.639754 4.478372 -0.000005 -0.000004 -0.858090 -10.515886 0.421616 0.522584 -0.000003 0.000001 -0.068619 68.305696 -6.843717 -2.321052 25.456955 7.355613 0.000000 
53.137196 -9.720695 122.095993 8.636361 -2.206065 1.283402 -2.449028 0.267462 0.105244 -0.895764 0.531354 0.219328 0.749334 0.533933 0.212944 18.318847 1.883472 -0.815340 -6.991362 -2.932808 -0.829983 -19.254254 -44.231229 -22.841128 -79.151756 -102.684244 -55.392585 0.000001 -0.000001 -0.000007 50.944479 -2.424629 -0.262547 0.000003 -0.000000 -3.000001 -5.000198 -7.998780 0.000163 -20.222993 50.083216 24.022648 -62.914997 104.085615 59.708660 -0.000006 -0.000007 0.000003 53.409009 6.432466 -0.922759 0.000002 -0.000004 3.000012 -5.000229 7.998765 -0.000152 -10.679407 -173.867246 0.192420 -179.999991 0.000005 -0.831994 172.691074 -3.570820 -0.704696 0.000004 0.000000 0.050016 67.062083 6.786806 2.527110 25.456860 -7.355623 -0.000002 -10.189511 179.618115 4.479669 -0.000004 -0.000004 -0.856428 -10.441985 0.421024 0.519844 -0.000004 0.000001 -0.066800 68.299979 -6.843241 -2.322616 25.456957 7.355614 0.000000 
